<svg xmlns="http://www.w3.org/2000/svg" viewBox="0 0 100 100" width="100" height="100">
  <path fill="#000000" d="M63.551 43.071c-2.139 0-3.837-1.55-4.333-3.481l-.176-.549c-.527-1.64-.144-3.16 1.134-3.88 1.743-.986 3.729-.353 4.494.686.76 1.043.42 2.764-.661 3.837l-.158.213c-.394.527-.777.964-1.234 1.184-.263.123-.517.184-.76.184zm2.518 7.994c-1.025 0-1.84-.532-2.336-1.417l-.107-.177c-.704-1.134-.827-2.516-.267-3.523.559-.985 1.72-1.65 3.047-1.847 1.32-.197 2.544.263 3.12 1.172.531.866.5 1.923-.064 2.847l-.186.3c-.369.58-.76 1.134-1.135 1.626-.22.31-.44.579-.653.798-.27.324-.563.549-.849.665-.235.09-.455.14-.671.14zm1.976 8.764c-1.52 0-2.648-1.123-3.061-2.514-.41-1.382-.007-3.074 1.046-3.834 1.056-.767 2.568-.4 3.385.523.81.923.587 2.37-.474 3.381-.463.527-.952.943-1.449 1.242-.356.198-.708.31-1.047.31zm-3.292 8.808c-1.896 0-3.425-1.367-3.867-3.049-.478-1.762-.042-3.38 1.248-4.266 1.29-.817 3.021-.633 4.038.334.984.933.94 2.456-.097 3.742-.466.598-1.027 1.069-1.586 1.422-.418.266-.83.428-1.216.518-.324.072-.61.106-.877.106z"/>
</svg>
